<?xml version="1.0"?>
<svg xmlns="http://www.w3.org/2000/svg" id="Capa_1" enable-background="new 0 0 510.553 510.553" height="512px" viewBox="0 0 510.553 510.553" width="512px"><g><path d="m487.65 154.044c-7.223-5.808-31.854-16.804-73.208-32.682-10.77-4.135-18.765-13.316-21.388-24.559l-10.778-46.2c-3.168-13.637-15.158-23.161-29.159-23.161h-115.914c-14.001 0-25.992 9.524-29.159 23.161l-10.005 43.079c-2.959 12.744-12.68 22.65-25.367 25.852l-15.102 3.811-2.43-9.458c-3.211-12.494-15.988-20.048-28.482-16.837l-80.265 20.62c-6.053 1.555-11.138 5.374-14.319 10.753-3.18 5.379-4.076 11.675-2.521 17.728l2.307 8.976c-.379.121-.746.245-1.102.378-18.398 6.869-30.758 24.68-30.758 44.32v253.353c0 16.505 13.429 29.933 29.935 29.933h248.618c9.674 0 9.674-15 0-15h-179.058v-246.211h71.724c-14.08 22.94-22.209 49.907-22.209 78.739 0 83.253 67.738 150.985 151 150.985 71.08 0 130.837-49.367 146.803-115.61 18.794-.836 33.828-16.381 33.828-35.376s-15.034-34.54-33.827-35.375c-4.313-17.893-11.815-34.556-21.879-49.346h70.619v237.26c0 8.234-6.7 14.933-14.935 14.933h-155.066c-9.674 0-9.674 15 0 15h155.065c16.506 0 29.935-13.428 29.935-29.933v-247.732c0-27.263-12.455-43-22.903-51.401zm-442.664-17.987c1.141-1.93 2.966-3.3 5.139-3.858l80.266-20.62c9.583-2.464 11.005 9.09 12.636 15.437l-96.637 24.385c-1.155-4.493-4.018-10.922-1.404-15.344zm-15.051 332.054c-8.235 0-14.935-6.699-14.935-14.933v-231.421h69.495v246.354zm435.705-167.472c0 9.72-6.834 17.86-15.946 19.907.862-6.516 1.314-13.159 1.314-19.907 0-6.747-.452-13.391-1.314-19.906 9.113 2.046 15.946 10.187 15.946 19.906zm-165.631 135.986c-74.99 0-136-61.003-136-135.985s61.009-135.985 136-135.985 136 61.002 136 135.985-61.009 135.985-136 135.985zm0-286.971c-47.885 0-90.63 22.407-118.314 57.281-.232-.022-.465-.035-.702-.035h-87.548c-.47-.092-.954-.143-1.45-.143h-76.995v-6.932c0-13.414 8.441-25.577 21.003-30.267.372-.139.817-.272 1.402-.42l138.937-35.061c18.159-4.583 32.071-18.761 36.308-37.002l10.005-43.079c1.58-6.803 7.562-11.555 14.548-11.555h115.914c6.985 0 12.968 4.751 14.55 11.562l10.78 46.207c3.753 16.092 15.2 29.234 30.619 35.154 37.652 14.457 63.515 25.81 69.185 30.369 7.314 5.881 15.917 16.668 17.141 35.185h-82.107c-27.692-31.411-68.206-51.264-113.276-51.264z" data-original="#000000" class="active-path" data-old_color="#000000" fill="#A1A1A1"/><path d="m355.957 73.687c-2.028-9.031-9.909-15.339-19.166-15.339h-7.738c-9.674 0-9.674 15 0 15h7.738c2.188 0 4.051 1.491 4.53 3.625l5.516 24.57c.646 2.88-1.578 5.657-4.529 5.657h-96.29c-2.951 0-5.176-2.777-4.53-5.657l5.517-24.571c.479-2.134 2.341-3.625 4.529-3.625h35.019c9.674 0 9.674-15 0-15h-35.019c-9.257 0-17.138 6.308-19.165 15.339l-5.517 24.571c-2.704 12.047 6.865 23.943 19.166 23.943h96.29c12.29 0 21.872-11.891 19.165-23.943z" data-original="#000000" class="active-path" data-old_color="#000000" fill="#A1A1A1"/><path d="m300.009 189.991c-61.017 0-110.658 49.637-110.658 110.648 0 61.012 49.641 110.648 110.658 110.648s110.658-49.637 110.658-110.648-49.641-110.648-110.658-110.648zm0 206.297c-52.746 0-95.658-42.908-95.658-95.648s42.912-95.648 95.658-95.648 95.658 42.908 95.658 95.648-42.912 95.648-95.658 95.648z" data-original="#000000" class="active-path" data-old_color="#000000" fill="#A1A1A1"/><path d="m300.009 259.721c-9.674 0-9.674 15 0 15 14.293 0 25.921 11.627 25.921 25.918 0 4.142 3.358 7.5 7.5 7.5s7.5-3.358 7.5-7.5c.001-22.562-18.357-40.918-40.921-40.918z" data-original="#000000" class="active-path" data-old_color="#000000" fill="#A1A1A1"/></g> </svg>
