<?xml version="1.0"?>
<svg xmlns="http://www.w3.org/2000/svg" id="Capa_1" enable-background="new 0 0 512 512" height="512px" viewBox="0 0 512 512" width="512px" class=""><g><path d="m512 57.85c0-4.142-3.358-7.5-7.5-7.5h-497c-4.142 0-7.5 3.358-7.5 7.5v338.15c0 9.674 15 9.674 15 0v-14.583h482v65.233h-482v-11.65c0-9.674-15-9.674-15 0v19.15c0 4.142 3.358 7.5 7.5 7.5h497c4.142 0 7.5-3.358 7.5-7.5zm-497 7.5h482v300.875h-482z" data-original="#000000" class="active-path" data-old_color="#000000" fill="#BCBCBC"/><path d="m322.47 201.192-117.44-67.804c-11.014-6.36-25.28 1.968-25.28 14.596v135.607c0 12.637 14.267 20.955 25.28 14.595l70.72-40.83c8.378-4.837.878-17.828-7.5-12.99l-70.72 40.83c-1.545.535-2.471 0-2.78-1.605v-135.607c.309-1.605 1.236-2.141 2.78-1.605l117.439 67.804c1.236 1.07 1.236 2.141 0 3.211l-10.72 6.189c-8.378 4.837-.877 17.829 7.5 12.99l10.72-6.189c11.006-6.355 11.013-22.835.001-29.192z" data-original="#000000" class="active-path" data-old_color="#000000" fill="#BCBCBC"/><path d="m78.377 421.533c3.053 8.162 10.909 14 20.123 14s17.07-5.838 20.123-14h334.377c9.674 0 9.674-15 0-15h-334.377c-3.053-8.162-10.909-14-20.123-14s-17.07 5.838-20.123 14h-19.377c-9.674 0-9.674 15 0 15zm20.123-14c3.584 0 6.5 2.916 6.5 6.5s-2.916 6.5-6.5 6.5-6.5-2.916-6.5-6.5 2.916-6.5 6.5-6.5z" data-original="#000000" class="active-path" data-old_color="#000000" fill="#BCBCBC"/></g> </svg>
